<?xml version="1.0"?>
<svg version="1.1" id="Capa_1" xmlns="http://www.w3.org/2000/svg" xmlns:xlink="http://www.w3.org/1999/xlink" x="0px" y="0px"
     viewBox="0 0 512 512" style="enable-background:new 0 0 512 512;" xml:space="preserve"><g id="Out_line" data-name="Out line"><path d="M493.65674,42.34326l-24-24a7.99989,7.99989,0,0,0-8.18653-1.93262l-24,8A8.00011,8.00011,0,0,0,432,32a36.75342,36.75342,0,0,1-15.01892,29.6676l-3.32434-3.32434a8,8,0,0,0-11.31348,0l-19.6076,19.60767a19.32505,19.32505,0,0,0-20.41486,4.41479l-8,8A19.21394,19.21394,0,0,0,348.915,100.96a19.21394,19.21394,0,0,0-10.59424,5.40576l-8,8a19.20891,19.20891,0,0,0-5.40723,10.60254,19.21782,19.21782,0,0,0-10.60205,5.40674l-7.99072,7.99072a19.19753,19.19753,0,0,0-5.398,10.57422,19.21138,19.21138,0,0,0-10.57959,5.40332L280,164.68652l-18.34326-18.34326a8,8,0,0,0-11.31348,0l-56,56a7.99915,7.99915,0,0,0,0,11.31348L204.68652,224,192,236.68652,187.31348,232a16.00006,16.00006,0,0,0-22.627,0L136,260.68652a15.8758,15.8758,0,0,0-4.66064,10.79212,24.95674,24.95674,0,0,0-12.9961,42.1781L124.68652,320,32.9707,411.71582a40.04474,40.04474,0,0,0,0,56.56836l17.37256,17.37256,11.31348-11.31348L44.28418,456.9707a24.02784,24.02784,0,0,1,0-33.9414L72,395.31348,76.68652,400l-6.34326,6.34326a25.008,25.008,0,0,0-4.722,28.72205L51.99951,448.687,63.313,460.00049l13.62164-13.62158a25.00542,25.00542,0,0,0,28.72211-4.72217L112,435.31348l10.34326,10.34326a7.99945,7.99945,0,0,0,11.31348,0L192,387.31348l6.34326,6.34326a24.95674,24.95674,0,0,0,42.1781-12.9961A15.8758,15.8758,0,0,0,251.31348,376L280,347.31348a16.00006,16.00006,0,0,0,0-22.627L275.31348,320,288,307.31348l10.34326,10.34326a7.99945,7.99945,0,0,0,11.31348,0l56-56a7.99915,7.99915,0,0,0,0-11.31348L347.31348,232l10.34326-10.34326a19.211,19.211,0,0,0,5.40527-10.59229,19.23409,19.23409,0,0,0,10.59473-5.40771l7.97754-7.97754a19.19218,19.19218,0,0,0,5.40088-10.59375,19.2059,19.2059,0,0,0,10.59912-5.40625l8-8A19.21394,19.21394,0,0,0,411.04,163.085a19.21394,19.21394,0,0,0,10.59424-5.40576l8-8a19.32408,19.32408,0,0,0,4.4151-20.415l19.60736-19.60742a7.99915,7.99915,0,0,0,0-11.31348l-3.32459-3.32458A36.75534,36.75534,0,0,1,480,80a8.00011,8.00011,0,0,0,7.58936-5.47021l8-24A7.99941,7.99941,0,0,0,493.65674,42.34326Zm-258.343,189.6565,44.686-44.686,44.68652,44.68652-44.686,44.686ZM256,163.314l12.68628,12.68628-44.686,44.686L211.314,208Zm-81.26355,206.736L125.121,342.19238,136,331.31348ZM94.34326,430.34326a8.97072,8.97072,0,0,1-12.68652-12.68652L88,411.31348,100.68652,424ZM128,428.68652,83.31348,384l5.70727-5.70728,57.23657,32.13648ZM158.00854,398.678,100.772,366.5415l12.59784-12.5979,57.23657,32.13648-8.26312,8.26318Zm64.33472-16.33472a8.982,8.982,0,0,1-12.68652,0l-80-80a8.97072,8.97072,0,0,1,12.68652-12.68652l80,80A8.98111,8.98111,0,0,1,222.34326,382.34326ZM240,364.68652,147.31348,272l28.6792-28.69336.00732.00684L268.68652,336Zm24-56L203.31348,248,216,235.31348,276.68652,296Zm40-8.00048-12.68628-12.68628,44.686-44.686L348.686,256ZM418.3208,138.36572l-8,8a3.31363,3.31363,0,0,1-4.68652,0l.02246-.02246-24-24-11.31348,11.31348,23.55524,23.55517c.13574.1587.27215.31714.4223.46729a3.31778,3.31778,0,0,1,0,4.68652l-8,8a3.31363,3.31363,0,0,1-4.68652,0l.02246-.02246-24-24-11.31348,11.31348,23.55426,23.5542c.136.15918.27277.31787.42328.46826l.00391.00391.00049.00048a3.31915,3.31915,0,0,1-.0044,4.68213l-7.97754,7.97754a3.35227,3.35227,0,0,1-4.40674.28516c-.09179-.09571-.18554-.19092-.27978-.28516l-24-24-11.31348,11.31348,23.53235,23.53235c.147.1737.29822.34448.46082.50622.0957.09473.19238.189.28906.28125a3.31549,3.31549,0,0,1-.28223,4.3667L336,220.68652,291.31348,176l10.34326-10.34326a3.31536,3.31536,0,0,1,4.36279-.28516q.13038.13549.2627.26953c.042.042.085.084.12793.12549a8.01565,8.01565,0,0,0,11.24658-11.42334c-.1001-.1001-.20166-.19971-.30371-.29736a3.32154,3.32154,0,0,1,.28125-4.3667l7.99072-7.99072a3.33469,3.33469,0,0,1,4.67334-.03174l.02246.02246a8.00008,8.00008,0,0,0,11.54883-11.06836c-.082-.08936-.16553-.17627-.25147-.26172l-.01464-.01465a3.31352,3.31352,0,0,1,.03076-4.65527l8-8a3.31778,3.31778,0,0,1,4.68652,0,7.99984,7.99984,0,1,0,11.31348-11.31348,3.31363,3.31363,0,0,1,0-4.68652l8-8a3.31365,3.31365,0,0,1,4.68652,0l40,40a3.31365,3.31365,0,0,1,0,4.68652Zm5.67914-21.6792-18.3432-18.34326-.02246.02246-10.3432-10.34326L408,75.314,436.686,104Zm50.12555-52.36181a52.695,52.695,0,0,0-35.19568,19.29162L428.38342,73.07a52.69368,52.69368,0,0,0,19.29187-35.19544l14.16407-4.72168,17.00781,17.00781Z"/></g></svg>
